<?xml version="1.0" standalone="no"?>
<!DOCTYPE svg PUBLIC "-//W3C//DTD SVG 20010904//EN"
 "http://www.w3.org/TR/2001/REC-SVG-20010904/DTD/svg10.dtd">
<svg version="1.0" xmlns="http://www.w3.org/2000/svg"
 width="2048.000000pt" height="815.000000pt" viewBox="0 0 2048.000000 815.000000"
 preserveAspectRatio="xMidYMid meet">
<metadata>
Created by potrace 1.13, written by Peter Selinger 2001-2015
</metadata>
<g transform="translate(0.000000,815.000000) scale(0.100000,-0.100000)"
fill="#000000" stroke="none">
<path d="M2740 7941 c-1092 -7 -1023 -2 -1099 -67 -19 -15 -44 -51 -57 -79
-23 -49 -24 -58 -24 -321 l0 -271 -91 -32 c-399 -140 -637 -369 -700 -676 -68
-327 64 -580 391 -749 147 -76 332 -133 521 -162 90 -13 103 -13 133 1 96 46
62 165 -50 180 -256 34 -500 122 -638 229 -70 54 -139 143 -161 206 -40 113
-25 265 39 395 158 321 656 511 1451 556 600 33 1296 -57 1752 -227 303 -113
539 -287 626 -463 26 -54 32 -77 32 -131 -1 -171 -155 -293 -491 -389 -39 -12
-78 -29 -87 -38 -42 -48 -28 -121 30 -148 40 -19 74 -14 228 37 231 77 393
195 466 340 150 296 -61 648 -526 881 -92 46 -341 143 -394 153 l-30 6 -3 312
-3 313 -30 48 c-43 70 -102 98 -208 100 -45 1 -530 -1 -1077 -4z m1143 -133
c46 -24 46 -29 47 -321 0 -261 -1 -278 -17 -273 -107 33 -475 93 -728 118
-198 19 -791 16 -979 -5 -158 -18 -350 -49 -450 -72 -33 -8 -61 -13 -63 -11
-2 2 -6 425 -4 473 1 12 11 34 24 48 48 56 16 54 1125 55 760 0 1029 -3 1045
-12z"/>
<path d="M8282 6328 l3 -1213 848 -3 847 -2 0 120 0 120 -497 2 -498 3 -3
1093 -2 1092 -350 0 -350 0 2 -1212z"/>
<path d="M2692 6945 c-99 -18 -220 -59 -317 -108 -129 -64 -282 -173 -305
-218 -24 -43 36 -102 80 -79 10 5 52 35 92 66 101 77 290 168 413 200 94 24
111 25 280 21 123 -4 199 -10 240 -22 180 -49 299 -118 412 -238 39 -43 80
-77 90 -77 35 0 63 29 63 66 0 29 -11 46 -77 114 -147 155 -335 247 -567 279
-103 15 -314 12 -404 -4z"/>
<path d="M10689 6935 c-192 -32 -319 -94 -434 -209 -173 -174 -244 -410 -232
-771 10 -312 82 -512 237 -665 162 -160 459 -242 767 -212 473 45 707 280 764
766 15 128 6 350 -20 471 -75 358 -286 562 -641 620 -114 18 -334 18 -441 0z
m306 -188 c72 -75 107 -223 126 -530 22 -376 -17 -765 -92 -895 -73 -129 -187
-119 -254 23 -59 126 -92 442 -81 785 14 464 80 660 220 660 33 0 46 -7 81
-43z"/>
<path d="M12645 6943 c-86 -12 -209 -48 -280 -83 -208 -102 -321 -254 -332
-450 -10 -165 35 -278 161 -406 99 -100 186 -157 381 -249 215 -102 266 -130
328 -186 63 -56 83 -100 73 -162 -16 -98 -81 -147 -207 -155 -42 -2 -99 1
-128 7 -130 28 -248 117 -303 229 -30 61 -33 75 -33 159 0 51 -2 93 -5 93 -3
0 -76 -14 -162 -31 l-158 -32 0 -56 c0 -184 108 -356 278 -444 178 -93 523
-131 779 -86 345 60 523 258 523 579 0 269 -182 456 -635 650 -208 88 -332
175 -356 247 -27 83 19 175 106 209 70 26 231 16 307 -20 103 -49 165 -149
175 -281 3 -42 9 -77 12 -79 9 -6 295 45 304 53 4 5 1 39 -8 76 -66 285 -287
427 -660 423 -71 0 -143 -3 -160 -5z"/>
<path d="M2464 6306 c-70 -70 -26 -175 74 -176 60 0 102 41 102 100 0 52 -13
76 -50 95 -49 25 -88 19 -126 -19z"/>
<path d="M3213 6330 c-36 -15 -65 -69 -59 -110 16 -110 171 -122 206 -16 12
38 -3 89 -33 114 -21 18 -86 24 -114 12z"/>
<path d="M1977 6212 c-38 -41 -8 -284 52 -432 41 -101 86 -172 159 -251 108
-116 236 -190 412 -236 131 -34 395 -44 521 -19 222 45 359 116 504 261 142
141 212 273 255 479 34 160 24 216 -39 216 -41 0 -58 -26 -70 -110 -19 -124
-40 -190 -93 -300 -45 -93 -61 -115 -142 -195 -106 -105 -171 -146 -305 -192
-241 -82 -569 -59 -786 55 -44 24 -97 64 -145 112 -127 126 -194 286 -209 497
-6 86 -11 108 -26 119 -26 20 -69 17 -88 -4z"/>
<path d="M2843 5962 c-12 -9 -27 -32 -34 -49 -16 -47 13 -103 63 -121 33 -13
41 -12 75 4 94 47 64 184 -41 184 -23 0 -51 -8 -63 -18z"/>
<path d="M2357 5952 c-27 -29 -20 -61 25 -119 84 -110 239 -215 364 -248 75
-19 193 -19 269 1 160 41 425 243 425 323 0 37 -23 61 -59 61 -21 0 -46 -18
-102 -72 -142 -139 -260 -198 -398 -198 -149 0 -276 69 -399 215 -38 45 -52
55 -78 55 -17 0 -38 -8 -47 -18z"/>
<path d="M5600 5689 c-661 -14 -1283 -29 -1434 -36 l-149 -6 -101 -104 c-294
-306 -623 -483 -971 -523 -255 -30 -541 43 -805 207 l-55 34 35 -31 c153 -134
403 -254 610 -291 116 -21 344 -17 462 9 300 65 577 214 849 454 l67 59 283
-10 c156 -6 563 -15 904 -22 341 -6 625 -12 632 -14 17 -5 -130 -438 -262
-770 -570 -1440 -1337 -2328 -2154 -2495 -114 -23 -323 -27 -462 -9 -351 45
-712 215 -1074 505 -143 115 -493 464 -629 629 -137 165 -369 474 -473 630
-201 301 -442 704 -549 918 -24 48 -46 87 -49 87 -3 0 5 -24 16 -52 395 -1011
980 -1908 1577 -2421 382 -328 746 -510 1147 -573 170 -27 460 -25 590 4 603
134 1148 551 1629 1247 111 160 298 477 385 652 153 308 365 822 459 1114 53
164 242 794 242 807 0 14 -113 14 -720 1z"/>
<path d="M16 5358 c-20 -28 -20 -48 0 -76 l15 -22 848 0 c930 0 884 -3 884 60
0 63 46 60 -884 60 l-848 0 -15 -22z"/>
<path d="M14735 5115 c-28 -10 -450 -38 -665 -44 l-245 -6 -3 -609 -2 -610
-25 35 c-79 106 -208 210 -313 249 -149 57 -355 65 -527 21 -270 -69 -465
-254 -584 -553 -40 -101 -87 -298 -108 -448 -24 -178 -24 -665 0 -839 52 -367
143 -596 306 -764 152 -159 331 -227 593 -227 247 0 440 74 598 228 l60 58 0
-113 0 -113 495 0 495 0 0 1870 0 1870 -32 -1 c-18 0 -37 -2 -43 -4z m-1139
-1340 c90 -26 158 -117 194 -262 41 -159 58 -631 42 -1158 -12 -373 -24 -446
-87 -541 -89 -135 -278 -139 -376 -9 -73 95 -95 223 -100 580 -7 435 3 926 22
1081 21 184 79 283 179 312 50 14 70 14 126 -3z"/>
<path d="M7025 5058 c-2 -7 -48 -159 -100 -338 -244 -825 -280 -949 -345
-1165 -38 -126 -146 -491 -240 -810 -94 -319 -209 -706 -255 -860 -98 -330
-145 -491 -145 -499 0 -4 93 -5 207 -4 l207 3 64 215 c34 118 87 296 116 395
l54 180 557 0 558 0 104 -385 c57 -212 106 -391 108 -397 4 -10 120 -13 540
-13 294 0 535 4 535 9 0 4 -25 98 -56 207 -30 109 -127 456 -214 769 -87 314
-202 725 -255 915 -53 190 -184 660 -291 1045 -107 385 -198 710 -204 723
l-10 22 -465 0 c-364 0 -467 -3 -470 -12z m360 -1695 c117 -439 211 -801 208
-805 -2 -5 -204 -8 -449 -8 -337 0 -444 3 -444 12 0 9 377 1328 445 1556 9 30
19 52 21 49 3 -3 101 -364 219 -804z"/>
<path d="M10175 4169 c-134 -24 -615 -59 -813 -59 l-122 0 2 -1362 3 -1363
492 -3 492 -2 4 852 c3 826 4 856 24 939 77 313 228 511 393 513 76 1 119 -31
152 -111 l23 -58 3 -1067 3 -1068 490 0 490 0 -3 1148 -3 1147 -23 75 c-70
225 -218 359 -451 406 -118 23 -365 15 -471 -15 -215 -63 -400 -193 -587 -416
l-42 -50 -1 247 c0 136 -3 249 -7 251 -5 2 -26 0 -48 -4z"/>
<path d="M16315 4165 c-387 -60 -700 -290 -900 -660 -125 -232 -185 -500 -185
-835 0 -459 106 -777 334 -1006 104 -103 147 -135 272 -197 223 -112 460 -154
814 -144 282 8 446 46 614 142 196 111 323 280 390 515 25 89 53 266 43 276
-5 5 -364 113 -378 114 -4 0 -9 -80 -12 -177 -3 -137 -10 -196 -26 -256 -51
-193 -163 -305 -340 -343 -132 -28 -267 -12 -360 43 -194 114 -313 440 -315
868 l-1 150 717 3 717 2 -5 103 c-9 189 -25 331 -49 453 -114 564 -411 875
-907 948 -124 19 -310 19 -423 1z m331 -277 c119 -81 186 -350 196 -783 l3
-140 -294 -3 -294 -2 6 179 c14 382 70 621 166 715 69 67 149 79 217 34z"/>
<path d="M19030 4160 c-324 -32 -598 -155 -782 -349 -138 -145 -197 -285 -206
-481 -9 -239 69 -431 249 -610 133 -132 277 -227 505 -336 341 -162 392 -188
468 -238 190 -124 245 -225 201 -372 -40 -136 -179 -204 -388 -191 -177 11
-325 77 -451 203 -127 126 -170 238 -168 430 l2 121 -252 -50 -251 -50 6 -91
c26 -376 227 -626 597 -744 194 -62 350 -82 632 -82 454 0 741 85 939 280 157
155 231 353 232 620 0 233 -75 395 -270 580 -164 156 -329 252 -733 425 -257
110 -438 235 -492 339 -17 33 -20 53 -16 112 10 159 109 238 313 250 176 11
336 -39 439 -136 92 -87 141 -208 154 -380 6 -67 10 -85 22 -83 39 4 456 77
459 79 2 2 -3 43 -13 90 -70 359 -308 578 -709 650 -100 18 -370 26 -487 14z"/>
</g>
</svg>
